<svg enable-background="new 0 0 140 45.4" height="45.4" viewBox="0 0 140 45.4" width="140" xmlns="http://www.w3.org/2000/svg"><g fill="#787878"><path d="m140 30.41c-.05-.38-.69-.56-.69-.56-1.65-.53-2.57-.47-3.4-3.03-1-3.09-2.33-4.12-4.96-4.12h-31.43c-2.13 0-3.1 1.12-3.1 2.99 0 3.41 1.89 5.24 5.24 5.24h37.64c.35 0 .74-.2.7-.52z"/><path d="m35.5 8.89c.06.4.72.59.72.59 1.72.55 2.68.49 3.55 3.16 1.05 3.22 2.44 4.3 5.18 4.3h3.55c2.22 0 3.23-1.17 3.23-3.12 0-3.13-2.66-5.47-6.16-5.47h-9.35c-.36 0-.77.21-.72.54z"/><path d="m51.87 24.32c0-.93-.27-2.44-1.69-2.44-1.5 0-1.69 1.51-1.69 2.44 0 0 .55 7.33-2.43 10.3-1.89 1.89-4.22 2.73-7.04 2.73-2.42 0-4.62 0-6.57.01-8.36-.06-9.86-6.24-9.86-10.04v-10.38h13.16c.36 0 .77-.21.72-.55-.06-.4-.72-.59-.72-.59-1.72-.55-2.68-.49-3.55-3.16-1.05-3.22-2.44-4.3-5.18-4.3h-4.43v-4.22c0-2.27-1.5-4.12-4.12-4.12s-4.12 1.85-4.12 4.12v4.23h-8.4c-2.22 0-3.23 1.17-3.23 3.12 0 3.56 1.97 5.47 5.47 5.47h6.17v7.81h-2.88c-5.56 0-10.82 4.26-11.4 11.45-.66 8.03 3.56 9.2 10.32 9.2h30.65c6.38 0 10.84-3.02 10.84-9.97zm-39.84 14.58c-1.88 0-3.4-1.52-3.4-3.4s1.52-3.4 3.4-3.4 3.4 1.52 3.4 3.4-1.52 3.4-3.4 3.4z"/><path d="m91.93 44.26c-1.72-.55-4.43-.33-5.68-5.34-.63-2.51-2.75-3.04-4.89-3.45-2.61-.51-4.57-2.29-4.57-5.54v-1.35c0-.02.01-.03.01-.03h-.01v-3.27h11.66c.45 0 .64-.27.59-.54-.06-.32-.62-.47-.62-.47-1.72-.45-2.32-.32-3.19-2.48-1.05-2.61-2.44-2.77-5.18-2.77h-3.27v-2.29c0-2.27-1.5-4.12-4.12-4.12s-4.12 1.85-4.12 4.12v12.14h-.6c-4.45 0-8.64 3.22-9.12 9.16-.46 5.6 2.85 7.36 8.26 7.36h24.85c.36 0 .77-.21.72-.55-.06-.39-.72-.58-.72-.58zm-23.48-3.37c-1.7 0-3.07-1.37-3.07-3.07s1.37-3.07 3.07-3.07 3.07 1.37 3.07 3.07-1.37 3.07-3.07 3.07z"/></g></svg>