<svg enable-background="new 0 0 50 50" height="50" viewBox="0 0 50 50" width="50" xmlns="http://www.w3.org/2000/svg"><g fill="#787878"><path d="m5.92 31.7 1.55-4.2 15.03 15.03-4.2 1.55-4.42-4.42-4.18 4.17c-.27-.8-.71-1.55-1.35-2.19-.62-.62-1.37-1.08-2.18-1.35l4.17-4.17z"/><path d="m35.82 1.56 14.18-1.56-1.56 14.18-30.92 20.95-2.65-2.65z"/><path d="m4.22 41.56c-1.08 0-2.16.41-2.98 1.24-1.65 1.65-1.65 4.32 0 5.97.82.82 1.9 1.23 2.98 1.23s2.16-.41 2.98-1.24c1.65-1.65 1.65-4.32 0-5.97-.82-.82-1.9-1.23-2.98-1.23"/><path d="m40 31.25-10 10h5.62v8.75h8.76v-8.75h5.62z"/></g></svg>