<!-- Generator: Adobe Illustrator 24.1.0, SVG Export Plug-In  -->
<svg version="1.1" xmlns="http://www.w3.org/2000/svg" xmlns:xlink="http://www.w3.org/1999/xlink" x="0px" y="0px" width="28.43px"
	 height="32px" viewBox="0 0 28.43 32" style="enable-background:new 0 0 28.43 32;" xml:space="preserve">
<style type="text/css">
	.st0{fill-rule:evenodd;clip-rule:evenodd;fill:#41C9B4;}
</style>
<defs>
</defs>
<g id="normal_x2F_logo_x5F_symbol_1_">
	<path id="Shape_1_" class="st0" d="M10.87,10.84V8.39c0-0.45,0.02-0.59,0.09-0.82c0.18-0.63,0.8-1.1,1.54-1.1s1.35,0.48,1.54,1.1
		c0.07,0.23,0.09,0.38,0.09,0.82v3.77c0,0.23,0,0.46-0.05,0.66c-0.13,0.57-0.64,1.09-1.22,1.21c-0.21,0.05-0.44,0.05-0.67,0.05H8.42
		c-0.45,0-0.6-0.02-0.83-0.09c-0.62-0.18-1.1-0.8-1.1-1.53c0-0.73,0.48-1.35,1.1-1.53c0.23-0.07,0.38-0.09,0.83-0.09H10.87z
		 M24.36,27.95H4.06V10.12c0-0.23,0.08-0.42,0.24-0.58l5.27-5.25c0.16-0.16,0.36-0.24,0.59-0.24h14.21V27.95z M26.67,0.02
		C26.57,0.01,26.43,0,26.17,0H9.61C9.43,0,9.25,0.01,9.12,0.02C8.36,0.09,7.69,0.45,7.15,0.98L0.99,7.13
		C0.45,7.66,0.09,8.34,0.02,9.09C0.01,9.22,0,9.4,0,9.58v20.16c0,0.26,0.01,0.4,0.02,0.5c0.09,0.86,0.87,1.64,1.73,1.73
		C1.86,31.99,2,32,2.26,32h23.91c0.26,0,0.4-0.01,0.5-0.02c0.86-0.09,1.64-0.87,1.73-1.73c0.01-0.1,0.02-0.24,0.02-0.5V2.25
		c0-0.26-0.01-0.4-0.02-0.5C28.31,0.89,27.53,0.11,26.67,0.02z"/>
</g>
</svg>
