<svg enable-background="new 0 0 32 31" height="31" viewBox="0 0 32 31" width="32" xmlns="http://www.w3.org/2000/svg"><path d="m32 7.92-7.92-7.92-.39.39c-.52-.24-1.08-.39-1.69-.39h-18c-2.2 0-4 1.8-4 4v23c0 2.2 1.8 4 4 4h18c2.2 0 4-1.8 4-4v-13.08zm-2.83 0-11.02 11.02-1.84-1.84 11.02-11.02zm-17.41 7.46 4.9 4.9-2.8.31-2.23-2.26zm12.32-12.55 1.84 1.84-11.02 11.01-1.84-1.84zm-1.08 24.17c0 .54-.46 1-1 1h-18c-.54 0-1-.46-1-1v-23c0-.54.46-1 1-1h17.08l-4 4h-12.08v2h10.08l-3 3h-7.08v2h5.23l-.2 7.97 8.13-.21 4.84-4.84z" fill="#787878"/></svg>