<svg enable-background="new 0 0 32.81 32" height="32" viewBox="0 0 32.81 32" width="32.81" xmlns="http://www.w3.org/2000/svg"><path clip-rule="evenodd" d="m16.4 0c-9.05 0-16.4 7.34-16.4 16.41 0 7.25 4.7 13.4 11.22 15.57.82.15 1.12-.36 1.12-.79 0-.39-.01-1.42-.02-2.79-4.56.99-5.53-2.2-5.53-2.2-.75-1.9-1.82-2.4-1.82-2.4-1.49-1.02.11-1 .11-1 1.65.12 2.51 1.69 2.51 1.69 1.46 2.51 3.84 1.78 4.77 1.36.15-1.06.57-1.78 1.04-2.19-3.64-.41-7.47-1.82-7.47-8.11 0-1.79.64-3.26 1.69-4.4-.16-.42-.72-2.09.17-4.35 0 0 1.38-.44 4.51 1.68 1.31-.36 2.71-.55 4.11-.55 1.39.01 2.8.19 4.11.55 3.13-2.12 4.51-1.68 4.51-1.68.9 2.26.33 3.93.16 4.34 1.05 1.15 1.69 2.61 1.69 4.4 0 6.3-3.84 7.69-7.49 8.1.59.51 1.11 1.51 1.11 3.04 0 2.19-.02 3.96-.02 4.5 0 .44.3.95 1.13.79 6.51-2.17 11.21-8.32 11.21-15.56-.01-9.07-7.36-16.41-16.42-16.41z" fill="#191313" fill-rule="evenodd"/></svg>