<svg enable-background="new 0 0 318.61 124.51" height="124.51" viewBox="0 0 318.61 124.51" width="318.61" xmlns="http://www.w3.org/2000/svg"><path d="m283.77 106.52v9.51c0 4.39-3.59 7.98-7.98 7.98h-235.07c-4.39 0-7.98-3.59-7.98-7.98v-5.78" fill="none" stroke="#c8c8c8" stroke-miterlimit="10"/><path d="m36.73 111.42-3.99-6.91-3.99 6.91z" fill="#c8c8c8"/><path d="m280.79 13.2-7.38 7.1-14.5-11.35v-.63z" fill="#787878"/><path d="m287.04 13.2 7.38 7.1 14.49-11.35v-.63z" fill="#787878"/><path d="m303.84 32.57c-1.53-1.53-4.24-2.84-6.65-2.84-3.61 0-5.97 1.88-7.72 3.71-1.61 1.68-3.23 2.63-5.55 2.63s-3.94-.95-5.55-2.63c-1.75-1.83-4.11-3.71-7.72-3.71-2.41 0-5.11 1.31-6.65 2.84l-5.08 13.72h.62c1.44-2.67 4-6.17 7.16-6.9 4.66-1.07 7.97 1.45 9.56 2.88 2.85 2.55 6.09 3.3 7.65 3.3s4.8-.74 7.65-3.3c1.6-1.43 4.9-3.95 9.56-2.88 3.17.73 5.72 4.23 7.16 6.9h.62z" fill="#787878"/><path d="m13.27 31.7 1.55-4.2 15.03 15.03-4.2 1.55-4.42-4.42-4.18 4.18c-.27-.8-.71-1.55-1.35-2.19-.62-.62-1.37-1.08-2.18-1.35l4.17-4.17z" fill="#787878"/><path d="m43.17 1.56 14.18-1.56-1.56 14.18-30.92 20.95-2.65-2.65z" fill="#787878"/><path d="m11.57 41.56c-1.08 0-2.16.41-2.98 1.24-1.65 1.65-1.65 4.32 0 5.97.82.82 1.9 1.24 2.98 1.24s2.16-.41 2.98-1.24c1.65-1.65 1.65-4.32 0-5.97-.82-.83-1.9-1.24-2.98-1.24" fill="#787878"/><path d="m47.35 31.25-10 10h5.62v8.75h8.75v-8.75h5.63z" fill="#787878"/><path d="m133.13 24.51s0-3.15 0-7 3.6-7 8-7h34c4.4 0 8 3.15 8 7s0 7 0 7z" fill="#787878"/><circle cx="145.63" cy="4" fill="#787878" r="4"/><circle cx="170.63" cy="4" fill="#787878" r="4"/><circle cx="145.63" cy="32.47" fill="#787878" r="4"/><path d="m133.13 50.04s0-2.59 0-5.76 3.6-5.76 8-5.76h9c4.4 0 8 2.59 8 5.76s0 5.76 0 5.76z" fill="#787878"/><path d="m174.63 28.47-8 8.26h4.94v2.54c0 2.51-.44 3.46-3.46 3.46h-5.13v5.12h7.63c4.57 0 7.08-2.5 7.08-7v-4.12h4.94z" fill="#787878"/><path d="m80.27 29.01h25" fill="none" stroke="#c8c8c8" stroke-miterlimit="10"/><path d="m210.27 29.01h25" fill="none" stroke="#c8c8c8" stroke-miterlimit="10"/><g fill="#787878"><path d="m257.26 68.67c-.29 0-.53.24-.53.53 0 .14.05.26.15.38l2.37 2.44c.1.1.25.16.38.16.25 0 .52-.2.52-.53 0-.14-.06-.28-.15-.37l-2.37-2.45c-.1-.1-.23-.16-.37-.16z"/><path d="m249.74 67.73h4.41v5.39c0 .29.24.53.53.53s.53-.24.53-.53v-5.39h4.58c.29 0 .53-.24.53-.53s-.24-.53-.53-.53h-4.58v-1.88c0-.29-.24-.53-.53-.53s-.53.24-.53.53v1.88h-4.41c-.29 0-.53.24-.53.53s.24.53.53.53z"/><path d="m252.15 68.79c-.29 0-.53.24-.53.52v.47c-.03.18-.74 1.01-1.88 1.53-.15.07-.31.25-.31.46 0 .31.24.56.54.56.08 0 .15-.02.22-.05 1-.47 2.48-1.57 2.48-2.47v-.5c.01-.29-.23-.52-.52-.52z"/><path d="m260.65 65.23c.09.08.19.11.3.11.24 0 .5-.2.5-.5 0-.15-.07-.29-.19-.39l-1.41-1.09c-.08-.07-.19-.1-.32-.1-.24 0-.49.18-.49.49 0 .14.07.28.19.38z"/><path d="m258.83 65.76c.09.09.22.15.35.15.24 0 .49-.19.49-.5 0-.13-.05-.25-.13-.34l-1.27-1.31c-.08-.1-.21-.16-.35-.16-.28 0-.5.23-.5.5 0 .14.04.25.13.34z"/><path d="m270.76 69.32c1.03-1.02 1.71-2.04 1.71-2.56v-.9c0-.29-.24-.53-.53-.53h-5.71c-.29 0-.53.24-.53.53s.24.53.53.53h5.18v.35c0 .43-2.8 4.09-7.15 5.24-.23.05-.39.27-.39.53 0 .25.21.53.52.53.05 0 .09 0 .14-.02 2.48-.66 4.44-2.12 5.44-2.97l3.81 2.72c.4.24.82-.06.82-.43 0-.17-.08-.33-.22-.44z"/><path d="m287.17 73.25c0-.29-.24-.53-.53-.53h-3.22c-1.22 0-1.86-.33-1.86-.66 0-.41 1.17-1.13 1.65-1.41 0 .06-.01.13-.01.19-.01.15-.02.29-.02.44 0 .31.27.53.52.53.29 0 .53-.21.54-.48.04-.35.06-.71.06-1.08v-.21c.29-.17.57-.32.79-.44l3.11-1.72c.17-.09.28-.27.28-.46 0-.32-.28-.52-.53-.52-.09 0-.17.02-.27.06l-2.82 1.56c-.27.16-.5.28-.71.39-.23-.92-.81-1.43-1.69-1.5.29-.3.5-.54.67-.78h3.52c.29 0 .53-.24.53-.53s-.24-.53-.53-.53h-2.92c.09-.25.13-.47.13-.69v-.62c0-.29-.24-.53-.53-.53-.28 0-.52.24-.52.53v.62c0 .19-.08.42-.24.69h-2.96c-.29 0-.53.24-.53.53s.24.53.53.53h2.12c-.7.73-1.59 1.45-2.25 1.99l-.26.21c-.13.11-.2.25-.2.4 0 .34.27.53.52.53.12 0 .23-.03.34-.11.37-.28.76-.6 1.2-.98l.03-.01c.45-.14.82-.2 1.11-.2.65 0 .84.35.94.98-1.74.99-2.68 1.7-2.68 2.62 0 .83.77 1.72 2.93 1.72h3.22c.3 0 .54-.23.54-.53z"/><path d="m295.67 64.75c.09-.09.15-.23.15-.37 0-.29-.24-.53-.53-.53-.15 0-.27.05-.38.16l-3.28 3.35c-.09.11-.14.24-.14.37 0 .29.23.52.53.52.14 0 .28-.06.37-.15l1.14-1.17v6.75c0 .28.24.5.53.5s.53-.23.53-.5v-7.55c0-.09-.02-.16-.05-.23z"/><path d="m303.68 63.8c-.29 0-.53.24-.53.53v8.63h-.97c-.29 0-.53.24-.53.53s.24.53.53.53h1.5c.29 0 .53-.24.53-.53v-9.16c0-.29-.24-.53-.53-.53z"/><path d="m301.48 70.39c.29 0 .53-.24.53-.53v-3.96c0-.29-.24-.53-.53-.53s-.53.24-.53.53v3.96c0 .3.23.53.53.53z"/><path d="m295.31 65.49c0 .28.25.53.53.53h1.36l-1.74 2.15c-.08.1-.12.21-.12.32 0 .28.26.55.53.55h1.85c-.02.06-.03.11-.03.17v.74h-1.82c-.28 0-.52.25-.52.53 0 .29.24.53.52.53h1.82v1.39l-2.4.59c-.23.05-.4.27-.4.51 0 .3.24.55.53.55.04 0 .1 0 .13-.02l5.08-1.25c.24-.06.41-.27.41-.53 0-.03 0-.09-.02-.14-.06-.23-.27-.39-.51-.39-.04 0-.1 0-.13.02l-1.62.4v-1.13h1.42c.29 0 .53-.24.53-.53s-.24-.53-.53-.53h-1.42v-.75c0-.06-.01-.11-.03-.17h1.43c.31 0 .54-.23.54-.53 0-.08-.01-.19-.07-.27l-.97-1.66c-.09-.17-.28-.28-.47-.28-.29 0-.52.24-.52.55 0 .04 0 .18.06.26l.51.88h-2.25l1.4-1.75c.06-.06.1-.13.12-.2h1.73c.29 0 .53-.24.53-.53s-.24-.53-.53-.53h-4.38c-.3-.01-.55.23-.55.52z"/><path d="m313.71 67.2h4.09c.28 0 .53-.24.53-.52 0-.29-.24-.53-.53-.53h-4.09v-1.84c0-.29-.24-.53-.53-.53-.28 0-.52.24-.52.53v1.84h-4.99c-.29 0-.53.24-.53.53 0 .28.24.52.53.52h4.99v.83c-.36-.15-.75-.23-1.12-.23-1.04 0-2.16.66-2.16 1.88 0 .98.87 1.72 2.02 1.72 1.05 0 1.62-.5 1.92-.96-.04.93-.74 1.75-3.76 2.86-.21.07-.35.27-.35.5 0 .29.23.52.52.52.06 0 .11-.01.15-.02l.04-.01c3.16-1.14 4.45-2.28 4.45-3.93 0-.61-.23-1.17-.66-1.62zm-2.17 1.67c.29 0 .75.09 1.12.33-.02.54-.26 1.15-1.26 1.15-.53 0-.95-.3-.95-.67 0-.59.67-.81 1.09-.81z"/><path d="m251.29 79.34c0-.19-.17-.41-.41-.41-.11 0-.21.04-.27.1-1.13.95-1.77 2.34-1.77 3.79s.65 2.83 1.78 3.8c.07.05.17.09.26.09.24 0 .42-.17.42-.39 0-.12-.05-.23-.14-.32-.94-.8-1.49-1.96-1.49-3.17s.54-2.37 1.49-3.17c.08-.09.13-.2.13-.32z"/><path d="m254.44 82.61h1.8c.23 0 .42-.19.42-.41s-.19-.41-.42-.41h-1.8c-.22 0-.42.19-.42.41.01.22.19.41.42.41z"/><path d="m254.44 79.46c-.23 0-.42.18-.42.4 0 .24.18.42.42.42h1.8c.23 0 .42-.19.42-.42s-.18-.4-.42-.4z"/><path d="m254.44 83.67h1.8c.23 0 .42-.19.42-.42s-.19-.41-.42-.41h-1.8c-.23 0-.42.19-.42.41.01.23.19.42.42.42z"/><path d="m256.42 84.05h-2.23c-.22 0-.41.19-.41.42v1.49c0 .22.19.41.41.41h2.23c.23 0 .41-.19.41-.41v-1.49c.01-.24-.18-.42-.41-.42zm-.4.83v.66h-1.41v-.66z"/><path d="m262.25 85.23h-1.93v-.61h1.3c.22 0 .41-.19.41-.41s-.19-.4-.41-.4h-1.3v-.54h1.3c.22 0 .41-.19.41-.41 0-.23-.19-.42-.41-.42h-1.3v-.54h1.51c.22 0 .42-.19.42-.41 0-.23-.19-.42-.42-.42h-1.27l.54-.65c.07-.07.1-.17.1-.27 0-.11-.05-.22-.16-.32-.2-.14-.45-.09-.58.07l-.54.63c-.07.07-.11.17-.11.28 0 .1.04.19.09.26h-1.38l.63-.58c.08-.1.12-.19.12-.3v-.44c0-.22-.19-.41-.42-.41s-.42.19-.42.41v.26l-1.17 1.08s0-.01 0-.02c0-.22-.19-.41-.42-.41h-3.11c-.22 0-.42.19-.42.41 0 .23.19.42.42.42h3.09l-.04.04c-.09.07-.13.18-.13.31 0 .26.21.41.42.41.1 0 .19-.04.28-.11l.22-.2v3.73c0 .23.19.42.42.42h4.25c.23 0 .42-.19.42-.42 0-.26-.18-.44-.41-.44zm-2.77-.61v.61h-1.07v-.61zm0-1.36v.54h-1.07v-.54zm0-1.37v.54h-1.07v-.54z"/><path d="m268.43 81.04h-.79v-1.01c0-.23-.19-.42-.42-.42s-.41.19-.41.42v1.01h-1.48c-.23 0-.42.19-.42.42 0 .22.19.41.42.41h1.4c-.26 1.27-1.09 2.73-2.42 3.27-.17.07-.27.21-.27.39 0 .23.19.41.42.41.05 0 .11-.02.15-.03 1.68-.68 2.69-2.5 2.96-4.04h.86c.31 0 .37.13.37.33 0 2.8-.86 2.92-1.38 2.99-.21.03-.36.21-.36.42 0 .22.19.4.41.4h.06.01c1.46-.23 2.08-1.37 2.08-3.82.01-.7-.46-1.15-1.19-1.15z"/><path d="m270.79 81.17c-.07-.06-.16-.09-.26-.09-.2 0-.42.16-.42.42 0 .12.06.23.16.32l1.67 1.33c.07.07.17.11.27.11.22 0 .4-.17.42-.4 0-.13-.06-.26-.16-.33z"/><path d="m281.57 81.4c-.07 0-.13.01-.21.05l-2.01 1.11c-.16.09-.31.18-.46.25-.17-.61-.57-.97-1.15-1.05.17-.18.31-.34.42-.49h2.5c.23 0 .41-.19.41-.41 0-.23-.19-.42-.41-.42h-2.03c.05-.16.08-.31.08-.45v-.44c0-.23-.19-.41-.42-.41-.22 0-.4.19-.4.41v.44c0 .12-.05.28-.16.45h-2.09c-.23 0-.42.19-.42.42s.19.41.42.41h1.43c-.49.5-1.09.99-1.54 1.36l-.19.15c-.1.09-.15.19-.15.32 0 .27.21.41.41.41.09 0 .18-.03.27-.09.26-.2.53-.42.85-.69l.02-.01c.32-.1.58-.14.78-.14.39 0 .55.16.63.65-1.24.71-1.91 1.22-1.91 1.89 0 .61.56 1.26 2.12 1.26h2.3c.23 0 .41-.19.41-.42s-.19-.41-.41-.41h-2.3c-.84 0-1.29-.22-1.29-.44 0-.26.75-.73 1.1-.94v.07c-.01.11-.01.21-.01.31 0 .24.21.42.4.42.23 0 .41-.16.42-.37.03-.25.04-.51.04-.77v-.13c.2-.11.38-.22.54-.3l2.23-1.23c.13-.07.21-.21.21-.36-.02-.26-.23-.41-.43-.41z"/><path d="m293.19 81.27h-3.89v-.62h1.86c.22 0 .41-.19.41-.4s-.19-.4-.41-.4h-1.86v-.3c0-.23-.19-.42-.42-.42s-.42.19-.42.42v.3h-1.79c-.22 0-.41.19-.41.4s.19.4.41.4h1.79v.62h-3.82c-.23 0-.42.19-.42.42s.19.41.42.41h2.8c-.1.07-.17.19-.17.32v.44h-1.27c-.23 0-.42.19-.42.41s.19.4.42.4h2.46v.63h-1.91c-.23 0-.42.19-.42.41 0 .23.19.42.42.42h1.91v1.24c0 .22.19.4.42.4s.42-.19.42-.4v-1.24h1.93c.23 0 .42-.19.42-.42s-.19-.41-.42-.41h-1.93v-.63h2.68c.22 0 .42-.19.42-.4 0-.23-.19-.41-.42-.41h-1.46v-.44c0-.13-.07-.25-.17-.32h2.84c.23 0 .42-.19.42-.41-.01-.23-.19-.42-.42-.42zm-3.5 1.15v.44h-1.58v-.44c0-.13-.06-.25-.16-.32h1.91c-.11.07-.17.19-.17.32z"/><path d="m303.02 81.33h-2.04v-1.35c0-.23-.19-.42-.41-.42s-.42.19-.42.42v1.35h-2.29v-1.16c0-.22-.19-.4-.42-.4-.22 0-.4.19-.4.4v1.16h-1.83c-.22 0-.42.19-.42.4 0 .23.19.42.42.42h1.83v.9c0 2.1.34 3.03 2.36 3.03h2.47c.22 0 .42-.19.42-.41 0-.23-.19-.42-.42-.42h-2.47c-1.25 0-1.54-.2-1.54-2.2v-.9h2.29v1.29l-.7-.29c-.05-.03-.12-.04-.19-.04-.22 0-.39.17-.39.38 0 .17.1.31.25.38l1.27.55c.07.03.12.03.17.03.23 0 .41-.18.41-.41v-1.88h2.04c.23 0 .42-.19.42-.42s-.19-.41-.41-.41z"/><path d="m312.74 84.78h-2.24c-1.28 0-1.28-.31-1.28-.56 0-.17.07-.44.13-.54.05-.07.07-.15.07-.24 0-.23-.18-.42-.42-.42-.15 0-.29.07-.33.17-.21.31-.27.79-.27 1.02 0 1.39 1.47 1.39 2.1 1.39h2.24c.23 0 .41-.19.41-.42 0-.22-.19-.4-.41-.4z"/><path d="m307.54 84.56c-.12 0-.23.06-.31.15l-.24.26c-.14-.41-.16-1.2-.16-2.89v-1.9c0-.23-.19-.42-.42-.42s-.4.18-.4.42v1.9c0 2.38.1 3.32.67 3.87.08.07.18.11.27.11.13 0 .25-.06.33-.15l.58-.68c.07-.08.1-.17.1-.26 0-.22-.2-.41-.42-.41z"/><path d="m310.34 82.07c0 .21.2.4.42.4.1 0 .19-.04.27-.12l1.23-1.22c.08-.08.12-.18.12-.29 0-.23-.19-.42-.42-.42h-3.07c-.22 0-.4.19-.4.42 0 .22.19.41.4.41h2.1l-.51.51c-.08.09-.14.2-.14.31z"/><path d="m316.84 79.04c-.07-.07-.17-.11-.28-.11-.24 0-.41.21-.41.41 0 .12.05.24.14.31.94.8 1.48 1.96 1.48 3.17s-.54 2.37-1.48 3.17c-.09.08-.14.19-.14.32 0 .23.18.39.42.39.09 0 .19-.03.26-.09 1.13-.95 1.77-2.34 1.77-3.79s-.64-2.84-1.76-3.78z"/><path d="m7.9 68.34c0-.3-.23-.53-.53-.53-.18 0-.32.07-.42.2-1.32 1.77-4.66 4.11-5.85 4.11h-.04v-6.72c0-.29-.24-.53-.53-.53s-.53.23-.53.52v7.26c0 .29.24.53.53.53h.55c1.8 0 5.4-2.78 6.71-4.53.07-.09.11-.2.11-.31z"/><path d="m20.19 66.98c.09.09.22.15.35.15.24 0 .49-.19.49-.5 0-.12-.04-.23-.13-.34l-1.35-1.42c-.09-.09-.22-.15-.34-.15-.28 0-.5.23-.5.5 0 .13.06.24.13.34z"/><path d="m21.98 66.38c.08.06.19.09.29.09.24 0 .49-.18.49-.49 0-.16-.07-.31-.19-.39l-1.41-1.08c-.09-.07-.2-.11-.3-.11-.26 0-.49.23-.49.49 0 .16.08.3.2.39z"/><path d="m16.91 66.21c-.17-.14-.49-.14-.66 0l-3.88 3.14c-.12.1-.18.25-.18.42 0 .28.24.52.53.52.09 0 .21-.01.33-.11l3.54-2.86 5.93 4.8c.1.09.21.13.35.13.3 0 .52-.28.52-.53 0-.16-.07-.3-.19-.41z"/><path d="m26.93 72.97c.08 0 .15-.02.22-.05 2.08-.98 3.64-3.26 3.64-5.3v-1.79c0-.29-.24-.53-.53-.53s-.53.24-.53.53v1.79c0 1.61-1.36 3.55-3.02 4.33-.19.08-.31.28-.31.48 0 .29.25.54.53.54z"/><path d="m37.87 68.81c.07-.09.11-.2.11-.32 0-.28-.26-.53-.54-.53-.16 0-.32.08-.42.22-1.36 1.76-3.03 2.96-3.89 3.4v-6.42c0-.28-.24-.52-.53-.52-.28 0-.53.24-.53.52v7.17c0 .28.25.52.53.52.97 0 3.55-1.81 5.27-4.04z"/><path d="m52.42 72.71h-5.39v-4.09h3.25c.28 0 .53-.24.53-.52 0-.29-.24-.53-.53-.53h-3.25v-2.91c0-.3-.24-.53-.54-.53-.29 0-.53.24-.53.53v8.06h-5.39c-.29 0-.53.24-.53.53s.24.53.53.53h11.86c.29 0 .53-.24.53-.53s-.25-.54-.54-.54z"/><path d="m64.69 64.1c-.09-.05-.17-.07-.26-.07-.27 0-.49.21-.49.49 0 .17.09.34.23.41l1.54.95c.08.05.16.07.26.07.27 0 .49-.22.49-.49 0-.18-.08-.34-.23-.43z"/><path d="m59.18 70.56c-.14 0-.28.06-.38.17l-1.21 1.29c-.31-.64-.42-1.87-.42-4.59v-2.33c0-.28-.24-.52-.53-.52s-.53.24-.53.52v2.33c0 3.75.23 5 1.06 5.8.09.09.23.15.37.15s.28-.06.38-.17l1.65-1.76c.09-.09.15-.23.15-.37-.01-.29-.24-.52-.54-.52z"/><path d="m65.42 66.94h-1.78v-2.27c0-.29-.24-.53-.53-.53s-.53.24-.53.53v2.27h-2.63c-.29 0-.53.24-.53.53s.24.53.53.53h2.63v.84c0 2.74-.61 3.8-2.42 4.19-.25.05-.42.26-.42.51 0 .3.23.53.52.53.04 0 .11 0 .2-.02 2.3-.53 3.19-1.99 3.19-5.22v-.83h1.78c.29 0 .53-.24.53-.53s-.24-.53-.54-.53z"/><path d="m66.31 63.2c-.07-.03-.16-.06-.24-.06-.28 0-.49.21-.49.49 0 .17.08.32.23.42l1.51.91c.1.06.18.06.26.06.29 0 .49-.25.49-.49 0-.16-.09-.32-.24-.42z"/><path d="m10.03 79.34c0-.19-.17-.41-.41-.41-.11 0-.21.04-.27.1-1.13.95-1.77 2.34-1.77 3.79s.65 2.83 1.78 3.8c.07.05.17.09.26.09.24 0 .42-.17.42-.39 0-.12-.05-.23-.14-.32-.94-.8-1.49-1.96-1.49-3.17s.54-2.37 1.49-3.17c.08-.09.13-.2.13-.32z"/><path d="m18.96 80.44h-1.73c-.23 0-.41.19-.41.42s.19.41.41.41h1.31v4.25h-3.64v-.96h3.07c.22 0 .42-.19.42-.42 0-.22-.2-.42-.42-.42h-3.07v-.81h3.07c.22 0 .42-.2.42-.42 0-.23-.19-.42-.42-.42h-3.07v-.82h1.32c.18 0 .33-.11.39-.29l.42-1.36c.02-.05.02-.09.02-.13 0-.2-.14-.4-.4-.4-.18 0-.34.11-.4.29l-.33 1.06h-1.42c-.23 0-.42.19-.42.42v5.08c0 .23.19.41.42.41h4.47c.23 0 .42-.19.42-.41v-5.08c-.01-.21-.2-.4-.43-.4z"/><path d="m31.1 85.4h-5.74v-2.69h3.48c.22 0 .42-.19.42-.4v-2.4c0-.23-.19-.41-.42-.41h-4.42c-.22 0-.4.19-.4.41 0 .23.19.42.4.42h4v1.57h-3.48c-.23 0-.42.19-.42.42v3.51c0 .23.19.42.42.42h6.16c.23 0 .42-.19.42-.42 0-.25-.19-.43-.42-.43z"/><path d="m41.8 82h-1.28v-1.44h.85c.23 0 .42-.19.42-.42 0-.22-.19-.4-.42-.4h-4.17c-.22 0-.4.18-.4.4 0 .23.18.42.4.42h.68v1.44h-1.18c-.23 0-.42.19-.42.42 0 .06.01.12.04.17-.02 0-.05-.01-.07-.01h-1.8c-.02 0-.04 0-.07.01l.26-.39c.05-.06.08-.15.08-.23v-1.05h1.67c.22 0 .41-.19.41-.41 0-.23-.19-.42-.41-.42h-3.09c-.23 0-.42.19-.42.42 0 .22.19.41.42.41h.58v.94l-1.32 2.01c-.04.04-.09.11-.09.24 0 .26.21.41.4.41.14 0 .27-.07.34-.19l.81-1.22v1.56c0 .23.19.42.42.42h1.8c.23 0 .42-.19.42-.42v-1.67c0-.06-.01-.12-.04-.17.02 0 .05.01.07.01h1.18v1.06l-.98 1.89c-.03.06-.04.12-.04.19 0 .23.18.4.41.4.15 0 .29-.08.37-.23l1.02-1.98.02-.05c.01-.03.03-.08.03-.14v-1.16h.96v3.48c0 .22.19.39.41.39.23 0 .42-.18.42-.39v-3.48h1.28c.22 0 .42-.19.42-.41.03-.22-.16-.41-.39-.41zm-5.96 1.41v.84h-.97v-.84zm3.84-2.85v1.44h-.96v-1.44z"/><path d="m43.86 83.71c-.05-.03-.13-.07-.22-.07-.21 0-.38.17-.38.37 0 .12.06.24.16.31l.7.53c.06.05.15.07.22.07.13 0 .24-.06.31-.15l.01-.01c.04-.07.07-.15.07-.22 0-.13-.06-.24-.15-.31z"/><path d="m52.13 81.72h-.8v-.43h.38c.21 0 .37-.16.37-.36s-.16-.36-.37-.36h-.63v-.11h.42c.2 0 .37-.17.37-.36 0-.21-.16-.38-.37-.38h-.42v-.24c0-.22-.18-.41-.39-.41-.22 0-.41.18-.41.41v.24h-.1v-.21c0-.2-.17-.36-.36-.36-.21 0-.37.16-.37.36v.58c0 .2.16.36.37.36h.46v.11h-.68c-.08 0-.15.02-.21.07-.06-.05-.13-.07-.21-.07h-.63v-.11h.42c.2 0 .36-.17.36-.36 0-.21-.16-.38-.36-.38h-.42v-.24c0-.22-.18-.41-.4-.41s-.4.19-.4.41v.24h-.1v-.21c0-.2-.16-.36-.37-.36-.2 0-.37.17-.37.36v.58c0 .2.17.36.37.36h.46v.11h-.68c-.1 0-.18.04-.25.1-.02-.05-.05-.1-.1-.14l-1.25-1.18c-.07-.07-.18-.12-.28-.12-.11 0-.21.06-.27.1l-1.95 1.58c-.09.08-.14.19-.14.31 0 .33.35.54.67.33l.05-.04c-.02.05-.03.1-.03.15 0 .23.19.42.42.42h.79v.61h-1.02c-.22 0-.41.19-.41.42s.19.41.41.41h1.02v1.04.49l-1.19.27c-.19.04-.32.21-.32.4 0 .23.18.41.42.41.02 0 .06 0 .1-.01l2.83-.63c.19-.04.33-.21.33-.4 0-.03 0-.08-.01-.1-.04-.19-.21-.33-.4-.33-.04 0-.08 0-.1.01l-.83.19v-1.35h.78c.22 0 .42-.19.42-.41 0-.08-.03-.15-.07-.22.11 0 .23-.03.31-.12l1.01-1.05c.02-.02.03-.05.05-.07v.44c0 .18.13.33.29.38h-.59c-.19 0-.35.16-.35.35v2.41c0 .19.14.34.32.36l-.85.39c-.14.07-.23.22-.23.38 0 .23.18.4.42.4.06 0 .12-.01.17-.04l1.24-.58c.15-.07.25-.22.25-.37 0-.06-.01-.12-.04-.17 0 0 0-.01-.01-.01h1.21c-.03.06-.04.12-.04.18 0 .16.09.31.24.37l1.23.58c.06.03.12.04.18.04.15 0 .31-.09.38-.22.03-.06.04-.12.04-.18 0-.17-.1-.32-.24-.38l-.83-.39h.06c.19 0 .35-.17.35-.36v-2.41c0-.14-.08-.26-.19-.31h1.08c.22 0 .38-.17.38-.38 0-.22-.17-.38-.39-.38zm-2.76.12c0-.02 0-.04 0-.06 0-.2-.17-.37-.37-.37-.06 0-.12.01-.17.04l-.03.01v-.17h.37c.08 0 .15-.02.21-.07.06.05.13.07.21.07h.3zm-.77.56.54-.27c-.01.04-.02.08-.02.12 0 .07.02.13.05.19h-.66c.03-.01.06-.02.09-.04zm1.95-.71c.01-.01.01-.01.02-.02v.42c0 .15.09.28.21.34h-.94zm-.38 2.35h-2.05v-.1h2.05c.2 0 .35-.16.35-.35s-.16-.35-.35-.35h-2.05v-.09h2.43v1.7h-2.43v-.11h2.05c.2 0 .35-.15.35-.34 0-.21-.16-.36-.35-.36zm-3.44-2.95c.06.12.18.2.31.2h.29l-.9.96c-.07.07-.11.16-.11.26 0 .07.01.13.04.18-.02 0-.03 0-.05 0h-.78v-.61h.63c.21 0 .4-.19.4-.42 0-.22-.18-.41-.4-.41h-2.25c-.02 0-.04 0-.07.01l1.29-1.05.99.94c.22.16.45.12.58-.03.03-.02.03-.02.03-.03z"/><path d="m46.21 83.74-.45.27c-.11.07-.18.19-.18.33 0 .21.17.38.38.38.08 0 .15-.02.2-.06l.44-.27c.11-.07.18-.19.18-.33 0-.07-.01-.13-.05-.2-.12-.19-.39-.22-.52-.12z"/><path d="m54.98 79.04c-.07-.07-.17-.11-.28-.11-.24 0-.41.21-.41.41 0 .12.05.24.14.31.94.8 1.49 1.96 1.49 3.17s-.54 2.38-1.48 3.18c-.09.08-.14.19-.14.31 0 .23.18.39.42.39.09 0 .19-.03.26-.09 1.13-.95 1.77-2.34 1.77-3.79s-.65-2.84-1.77-3.78z"/><path d="m130.29 68.28c.13 0 .26-.06.35-.15l1.36-1.26v6.83c0 .27.24.5.53.5s.53-.23.53-.5v-7.55c0-.07-.02-.15-.05-.22l1.25-1.16c.11-.11.16-.24.16-.38s-.04-.26-.13-.37c-.21-.21-.57-.2-.75-.02l-3.65 3.35c-.11.11-.16.24-.16.38.01.31.25.55.56.55z"/><path d="m142.04 69.9v-3.24c0-.29-.24-.53-.53-.53h-2.83v-1.85c0-.29-.24-.53-.53-.53s-.53.24-.53.53v1.85h-2.72c-.29 0-.53.24-.53.53v3.24c0 .29.24.53.53.53h2.72v3.22c0 .29.24.52.53.52.3 0 .53-.23.53-.52v-3.22h2.83c.29.01.53-.24.53-.53zm-1.06-2.71v2.19h-2.3v-2.19zm-3.36 0v2.19h-2.19v-2.19z"/><path d="m152.02 68.08h3.31v5.45c0 .29.24.53.53.53s.53-.24.53-.53v-9.01c0-.29-.24-.53-.53-.53h-3.84c-.29 0-.53.24-.53.53v3.03c0 .29.24.53.53.53zm3.18-2.04c0-.25-.2-.45-.45-.45h-2.2v-.53h2.78v1.96h-2.78v-.53h2.2c.25 0 .45-.2.45-.45z"/><path d="m149.12 68.94c-.27 0-.49.21-.49.48v3.54c0 .27.22.49.49.49h3.45c.27 0 .49-.22.49-.49v-3.54c0-.26-.22-.48-.49-.48zm2.86 2.24c0-.27-.23-.49-.5-.49h-1.86v-.79h2.47v2.57h-2.47v-.8h1.86c.27 0 .5-.22.5-.49z"/><path d="m150.1 67.55v-3.03c0-.29-.24-.53-.53-.53h-3.66c-.29 0-.53.24-.53.53v6.91l-1.16 1.73c-.06.08-.1.18-.1.3 0 .31.23.55.53.55.16 0 .33-.09.44-.24l1.23-1.86c.07-.07.11-.17.11-.31v-3.52h3.14c.29 0 .53-.24.53-.53zm-1.22-1.51c0-.24-.21-.45-.45-.45h-2v-.53h2.61v1.96h-2.61v-.53h2c.25 0 .45-.21.45-.45z"/><path d="m169.53 73.62c.04-.07.09-.17.09-.29 0-.17-.1-.35-.24-.44l-1.69-1.1c-.24-.19-.58-.12-.72.14-.06.07-.09.17-.09.29 0 .16.09.33.24.44l1.69 1.12c.09.06.2.09.3.09.17-.02.31-.1.42-.25z"/><path d="m164.65 71.51v2.26c0 .28.24.5.53.5s.53-.23.53-.5v-2.26h5.42c.29 0 .53-.24.53-.52 0-.29-.24-.53-.53-.53h-5.42v-.49c0-.08-.02-.16-.05-.23h2.89c.29 0 .53-.24.53-.53s-.24-.53-.53-.53h-2.68v-.32h1.92c.24 0 .45-.2.45-.45s-.2-.45-.45-.45h-1.92v-.3h1.92c.25 0 .45-.19.45-.43 0-.25-.2-.46-.45-.46h-1.92v-.27h2.52c.27 0 .49-.22.49-.49s-.22-.49-.49-.49h-2.2l.36-.4c.08-.1.12-.22.12-.33 0-.29-.25-.55-.53-.55-.16 0-.3.07-.4.18l-.75.85c-.06.06-.1.15-.12.24h-1.33c.14-.11.21-.26.21-.42v-.45c0-.29-.24-.53-.53-.53s-.53.24-.53.53v.17l-2.59 1.75c-.14.09-.23.25-.23.43 0 .3.23.53.53.53.09 0 .2-.03.29-.09l1.26-.85v3.11c0 .29.24.53.53.53h2.19c-.03.07-.05.15-.05.23v.49h-5.44c-.29 0-.53.24-.53.53 0 .28.24.52.53.52h5.47zm-1.61-5.2v-.3h1.78v.3zm0 1.17v-.32h1.78v.32zm0 1.21v-.35h1.78v.35z"/><path d="m162.65 71.76-1.9 1.1c-.16.09-.26.27-.26.46 0 .3.23.53.53.53.1 0 .19-.02.27-.07l1.89-1.12c.16-.09.26-.26.26-.44 0-.07-.01-.19-.08-.28-.16-.26-.49-.31-.71-.18z"/><path d="m179.46 71.49c0-.1-.02-.17-.07-.26l-.49-.84c.78-.95 1.38-2.07 1.67-3.1h.09c1.59 0 2.94 1.09 2.94 2.38 0 1.12-1.25 2.4-3.34 2.61-.26.02-.47.25-.47.53 0 .3.23.53.53.53 1.97 0 4.34-1.64 4.34-3.67 0-1.86-1.72-3.38-3.9-3.44 0-.08 0-.16 0-.24v-1.13c0-.29-.24-.53-.53-.53-.28 0-.52.25-.52.53v1.14c0 .09-.01.19-.02.28-1.06.11-1.98.38-2.75.8l-.96-1.64c-.09-.16-.27-.26-.46-.26-.29 0-.53.24-.53.53 0 .1.02.19.07.27l.98 1.69c-1.22 1.02-1.66 2.32-1.66 3.21 0 1.44 1.03 1.6 1.47 1.6.64 0 1.46-.45 2.27-1.24l.32.54c.09.16.28.26.47.26.31-.01.55-.25.55-.55zm-3.6-.09c-.24 0-.41 0-.41-.53 0-.61.3-1.52 1.15-2.27l.98 1.68c-.69.7-1.34 1.12-1.72 1.12zm3.58-4.02c-.24.67-.63 1.38-1.12 2.04l-.84-1.42c.56-.31 1.21-.51 1.96-.62z"/><path d="m115.21 79.34c0-.19-.17-.41-.41-.41-.11 0-.21.04-.27.1-1.13.95-1.77 2.34-1.77 3.79s.65 2.83 1.78 3.8c.07.05.17.09.26.09.24 0 .42-.17.42-.39 0-.12-.05-.23-.14-.32-.94-.8-1.49-1.96-1.49-3.17s.54-2.37 1.49-3.17c.08-.09.13-.2.13-.32z"/><path d="m126.29 80.3h-4.52v-.69c0-.23-.19-.41-.42-.41-.22 0-.4.19-.4.41v.92l-.8.7c-.08.08-.13.19-.13.31 0 .23.19.41.41.41.1 0 .2-.04.26-.1l.82-.72h.4v5.16c0 .22.18.39.41.39.24 0 .42-.17.42-.39v-1.54h2.22c.22 0 .42-.19.42-.4 0-.23-.18-.41-.42-.41h-2.22v-.87h2.03c.23 0 .42-.19.42-.41 0-.23-.19-.42-.42-.42h-2.03v-1.1h3.55c.23 0 .42-.19.42-.42-.01-.23-.2-.42-.42-.42z"/><path d="m120.29 79.93c.08-.08.13-.19.13-.3s-.04-.22-.12-.29c-.16-.15-.39-.18-.58-.01l-2.47 2.4c-.07.07-.12.18-.12.29 0 .23.18.41.41.41.11 0 .2-.04.3-.12l.84-.81v4.77c0 .21.19.4.42.4s.42-.18.42-.4v-5.39c0-.06-.01-.11-.03-.16z"/><path d="m136.57 80.59h-1.47c.12-.04.21-.11.26-.22v-.01c.01-.02.03-.08.03-.14 0-.18-.1-.33-.25-.39l-.73-.32c-.04-.01-.09-.03-.15-.03-.23 0-.42.18-.42.4 0 .17.09.33.25.4l.73.31.03.01h-1.35v-1c0-.23-.19-.42-.41-.42s-.42.19-.42.42v.99h-.77v-.99c0-.23-.19-.42-.42-.42-.22 0-.42.19-.42.42v.99h-1.34c.01 0 .02-.01.02-.01l.72-.31c.15-.07.24-.22.24-.38 0-.05-.01-.1-.03-.16-.09-.21-.33-.33-.56-.22l-.71.32c-.15.07-.24.21-.24.37 0 .19.12.34.28.39h-1.43c-.22 0-.42.19-.42.42s.19.41.42.41h2.75v.42h-1.06c-.22 0-.38.17-.38.38s.17.38.38.38h2.04v.18h-1.65c-.21 0-.38.17-.38.38 0 .22.17.38.38.38h1.65v.22h-2.59c-.23 0-.42.19-.42.42s.19.41.42.41h1.52l-2.12 1.09c-.14.07-.23.21-.23.36 0 .23.19.42.42.42.06 0 .13-.02.19-.04l2.81-1.46v1.28c0 .23.19.42.42.42s.42-.19.42-.42v-1.31l2.87 1.49c.05.03.12.04.19.04.23 0 .42-.19.42-.42 0-.15-.09-.29-.23-.36l-2.12-1.09h1.66c.23 0 .42-.19.42-.41 0-.23-.19-.42-.42-.42h-2.79v-.22h1.64c.21 0 .38-.17.38-.38s-.17-.38-.38-.38h-1.64v-.18h2.11c.21 0 .38-.17.38-.38s-.17-.38-.38-.38h-.92v-.42h2.79c.23 0 .41-.19.41-.41.01-.23-.18-.42-.4-.42zm-3.63.83v.42h-1.35v-.42z"/><path d="m142.66 80.13c-2.34 0-3.73 1.66-3.73 3.27 0 1.46.74 1.98 1.36 1.98.45 0 .98-.48 1.45-1.32.62-1.09.96-2.47.96-2.73v-.37h.02c1.48 0 2.4.78 2.4 2.02 0 1.07-1.39 2.16-2.76 2.16-.23 0-.42.19-.42.42s.19.41.42.41c1.85 0 3.59-1.45 3.59-2.99 0-1.73-1.29-2.85-3.29-2.85zm-2.37 4.43c-.32 0-.53-.46-.53-1.15 0-.96.72-2.05 2.11-2.36v.23c-.38 1.95-1.34 3.28-1.58 3.28z"/><path d="m156.92 83.56h-.86v-.26c0-.19-.13-.35-.32-.39.08-.06.14-.15.17-.26l.38-2.12v-.05c0-.24-.17-.42-.41-.42h-1.33v-.42c0-.23-.19-.42-.42-.42-.22 0-.41.19-.41.42v.42h-1.08c-.23 0-.41.19-.41.42s.19.42.41.42h.49l-1.47 1.46c-.08.07-.13.18-.13.3 0 .23.19.41.42.41.06 0 .12-.01.17-.03-.06.07-.1.16-.1.27v.26h-.69c-.22 0-.42.19-.42.42s.19.42.42.42h.36l-1 1.57c-.05.08-.07.15-.07.21 0 .23.19.42.41.42.14 0 .28-.08.36-.2l1.26-2.01h.59l-.21 1.29h-.64c-.22 0-.41.19-.41.41 0 .23.19.42.41.42h1c.21 0 .37-.15.4-.35l.33-2.06c.05.17.21.29.4.29h.38l-.99 1.57c-.05.08-.07.15-.07.21 0 .23.19.42.42.42.14 0 .28-.08.35-.19l1.27-2.01h.58l-.18 1.29h-.68c-.22 0-.41.19-.41.41 0 .23.19.42.41.42h1.04c.21 0 .38-.15.4-.36l.32-2.14c-.02-.27-.2-.46-.44-.46zm-2.81.3c-.05-.18-.2-.3-.39-.3h-.88v-.26c0-.22-.19-.4-.42-.4-.06 0-.12.01-.17.04l2.06-2.03h1.07l-.22 1.26h-1.08c-.22 0-.42.19-.42.42 0 .22.19.41.42.41h1.31c-.09.07-.15.19-.15.31v.26h-.71c-.21-.01-.37.12-.42.29z"/><path d="m151.85 81.65c0-.22-.19-.41-.42-.41h-1.03v-1.59c0-.23-.19-.42-.42-.42-.22 0-.41.19-.41.42v1.59h-1.15c-.23 0-.42.19-.42.41 0 .23.19.42.42.42h1.15v4.23c0 .21.19.4.41.4.23 0 .42-.18.42-.4v-4.23h1.03c.23 0 .42-.19.42-.42z"/><path d="m165.81 81.01h-2.85v-1.37c0-.23-.19-.42-.42-.42-.22 0-.41.19-.41.42v1.37h-1.53c-.23 0-.42.19-.42.41 0 .23.19.42.42.42h1.53v.52l-3.11 3.62c-.07.07-.11.17-.11.27 0 .22.19.41.42.41.12 0 .23-.05.31-.13l3.21-3.73c.07-.08.1-.17.1-.27v-.67h2.44v3.86h-1.49c-.22 0-.42.19-.42.41 0 .23.19.42.42.42h1.91c.22 0 .41-.19.41-.42v-4.69c0-.24-.19-.43-.41-.43z"/><path d="m177.68 81.49h-2.13l.65-.36c.14-.07.23-.21.23-.36v-.81c0-.22-.2-.42-.41-.42-.22 0-.42.19-.42.42v.6l-1.71.94h-.12v-.6h1.08c.23 0 .42-.19.42-.42 0-.22-.19-.41-.42-.41h-1.08v-.58c0-.23-.19-.42-.42-.42s-.42.19-.42.42v.58h-1.38c-.22 0-.42.19-.42.41 0 .23.19.42.42.42h1.38v.59h-3.26c-.22 0-.42.19-.42.42s.19.42.42.42h2.71l-3.16 1.74c-.13.07-.22.21-.22.37 0 .21.2.41.42.41.08 0 .16-.02.2-.06l2.54-1.41v2.58c0 .23.19.42.42.42h2.96c.23 0 .41-.19.41-.42v-2.68c0-.23-.19-.42-.41-.42h-2.47l.98-.55h3.62c.23 0 .41-.19.41-.42s-.17-.4-.4-.4zm-3.03 2.74h-1.65v-.54h2.13v1.86h-2.13v-.55h1.64c.21 0 .39-.18.39-.38s-.17-.39-.38-.39z"/><path d="m187.96 83.94h-3.83v-.31c0-.04-.01-.08-.02-.12h2.01c.23 0 .42-.19.42-.42 0-.22-.19-.41-.42-.41h-1.87v-.16h1.33c.19 0 .36-.16.36-.35 0-.2-.16-.35-.36-.35h-1.33v-.14h1.33c.2 0 .36-.15.36-.35s-.16-.36-.36-.36h-1.33v-.12h1.76c.21 0 .38-.18.38-.38 0-.21-.18-.39-.38-.39h-1.49l.21-.23c.06-.08.1-.17.1-.26 0-.23-.19-.42-.42-.42-.12 0-.24.05-.31.14l-.54.6c-.04.04-.07.1-.09.16h-.83c.07-.08.1-.17.1-.26v-.32c0-.23-.19-.42-.42-.42s-.42.19-.42.42v.1l-1.83 1.24c-.11.07-.18.2-.18.34 0 .3.31.54.64.34l.85-.57v2.15c0 .23.19.42.42.42h1.51c-.01.04-.02.08-.02.12v.31h-3.84c-.23 0-.42.19-.42.42 0 .22.19.4.42.4h3.84v1.57c0 .22.19.39.41.39s.42-.18.42-.39v-1.57h3.83c.22 0 .42-.19.42-.4 0-.24-.19-.42-.41-.42zm-5.75-2.97v-.14h1.2v.14zm0 .84v-.16h1.2v.16zm0 .86v-.18h1.2v.18z"/><path d="m181.89 84.86-1.36.79c-.13.07-.2.21-.2.36 0 .23.18.41.42.41.08 0 .15-.02.21-.06l1.35-.8c.12-.07.2-.21.2-.35 0-.06-.01-.15-.06-.22-.14-.18-.4-.23-.56-.13z"/><path d="m185.53 84.88c-.18-.15-.45-.09-.57.1-.05.06-.07.13-.07.22 0 .13.07.26.19.34l1.2.8c.07.04.16.07.23.07.14 0 .25-.07.33-.19.03-.05.07-.12.07-.22 0-.14-.08-.27-.19-.34z"/><path d="m194.87 80.92c0-.04 0-.09 0-.14v-.81c0-.23-.19-.42-.42-.42-.22 0-.41.19-.41.42v.81c0 .05 0 .11-.01.17-.73.08-1.38.27-1.92.56l-.67-1.14c-.07-.13-.21-.2-.36-.2-.22 0-.42.19-.42.42 0 .08.02.15.06.21l.69 1.18c-.86.73-1.17 1.66-1.17 2.3 0 1.06.76 1.17 1.08 1.17.46 0 1.04-.31 1.61-.86l.21.35c.07.12.21.2.37.2.23 0 .42-.19.42-.42 0-.08-.02-.14-.06-.2l-.34-.57c.54-.67.97-1.45 1.17-2.18h.03c1.12 0 2.06.76 2.06 1.66 0 .78-.88 1.68-2.35 1.82-.21.01-.37.2-.37.41 0 .23.18.41.41.41 1.42 0 3.13-1.18 3.13-2.65.04-1.34-1.19-2.44-2.74-2.5zm-3.53 3.69c-.16 0-.25 0-.25-.34 0-.42.21-1.04.77-1.57l.66 1.14c-.47.47-.92.77-1.18.77zm2.5-2.79c-.17.44-.42.91-.74 1.34l-.55-.94c.37-.19.8-.33 1.29-.4z"/><path d="m201.36 79.04c-.07-.07-.17-.11-.28-.11-.24 0-.41.21-.41.41 0 .12.05.24.14.31.94.8 1.48 1.96 1.48 3.17s-.54 2.37-1.48 3.17c-.09.08-.14.19-.14.32 0 .23.18.39.42.39.09 0 .19-.03.26-.09 1.13-.95 1.77-2.34 1.77-3.79s-.64-2.84-1.76-3.78z"/></g></svg>