<svg enable-background="new 0 0 50 50" height="50" viewBox="0 0 50 50" width="50" xmlns="http://www.w3.org/2000/svg"><g fill="#787878"><path d="m0 25.07s0-3.15 0-7 3.6-7 8-7h34c4.4 0 8 3.15 8 7s0 7 0 7z"/><circle cx="12.5" cy="4" r="4"/><circle cx="37.5" cy="4" r="4"/><circle cx="12.5" cy="32.47" r="4"/><path d="m0 50s0-2.59 0-5.76 3.6-5.76 8-5.76h9c4.4 0 8 2.59 8 5.76v5.76z"/><path d="m41.5 28.47-8 8.26h4.94v2.54c0 2.51-.44 3.46-3.46 3.46h-5.13v5.12h7.63c4.57 0 7.08-2.5 7.08-7v-4.12h4.94z"/></g></svg>